<?xml version="1.0" standalone="no"?>
<!DOCTYPE svg PUBLIC "-//W3C//DTD SVG 20010904//EN"
 "http://www.w3.org/TR/2001/REC-SVG-20010904/DTD/svg10.dtd">
<svg version="1.0" xmlns="http://www.w3.org/2000/svg"
 width="200.000000pt" height="200.000000pt" viewBox="0 0 200.000000 200.000000"
 preserveAspectRatio="xMidYMid meet">

<g transform="translate(0.000000,200.000000) scale(0.100000,-0.100000)"
fill="#000000" stroke="none">
<path d="M897 1458 c4 -19 3 -20 -6 -8 -9 13 -11 12 -11 -3 0 -11 6 -17 13
-15 14 5 23 48 9 48 -6 0 -8 -10 -5 -22z"/>
<path d="M1071 1453 c0 -11 3 -13 6 -5 2 6 10 9 15 6 7 -4 8 -2 4 4 -11 18
-26 14 -25 -5z"/>
<path d="M1146 1455 c-3 -9 -6 -22 -5 -28 0 -7 5 -1 10 12 5 13 8 26 5 28 -2
2 -6 -3 -10 -12z"/>
<path d="M1196 1435 c-3 -9 -6 -22 -5 -28 0 -7 5 -1 10 12 5 13 8 26 5 28 -2
2 -6 -3 -10 -12z"/>
<path d="M806 1431 c-4 -5 -1 -13 5 -17 8 -4 9 -3 5 4 -4 7 -3 12 3 12 5 0 12
-5 14 -10 3 -6 4 -5 3 2 -3 16 -23 22 -30 9z"/>
<path d="M754 1392 c3 -5 0 -13 -6 -15 -9 -4 -10 -6 -1 -6 17 -1 25 16 12 25
-7 4 -9 3 -5 -4z"/>
<path d="M962 1323 c-111 -192 -202 -353 -202 -358 0 -3 111 -5 246 -5 l245 0
-18 30 -17 30 -173 0 c-95 0 -173 3 -173 7 0 4 30 60 67 125 l67 118 32 -58
33 -57 -35 -3 c-26 -2 -38 -10 -49 -33 l-16 -29 101 0 c55 0 100 2 100 5 0 5
-158 284 -165 293 -2 2 -21 -27 -43 -65z"/>
<path d="M1276 1353 c-6 -14 -5 -15 5 -6 7 7 10 15 7 18 -3 3 -9 -2 -12 -12z"/>
<path d="M1305 1360 c-3 -6 1 -7 9 -4 18 7 21 14 7 14 -6 0 -13 -4 -16 -10z"/>
<path d="M1344 1318 l-19 -23 23 19 c21 18 27 26 19 26 -2 0 -12 -10 -23 -22z"/>
<path d="M640 1315 c-10 -13 -9 -15 11 -14 13 0 18 3 11 6 -6 2 -10 9 -6 14 9
15 -2 10 -16 -6z"/>
<path d="M1370 1269 c0 -5 5 -7 12 -3 8 5 9 1 4 -12 -5 -14 -4 -16 5 -7 6 6 8
16 5 22 -9 14 -26 14 -26 0z"/>
<path d="M600 1266 c0 -2 7 -7 16 -10 8 -3 12 -2 9 4 -6 10 -25 14 -25 6z"/>
<path d="M1424 1204 c-18 -14 -18 -15 4 -4 12 6 22 13 22 15 0 8 -5 6 -26 -11z"/>
<path d="M560 1196 c0 -2 7 -6 15 -10 8 -3 15 -1 15 4 0 6 -7 10 -15 10 -8 0
-15 -2 -15 -4z"/>
<path d="M1420 1180 c-9 -6 -10 -10 -3 -10 6 0 15 5 18 10 8 12 4 12 -15 0z"/>
<path d="M540 1176 c0 -2 9 -6 20 -9 11 -3 18 -1 14 4 -5 9 -34 13 -34 5z"/>
<path d="M1430 1121 c0 -6 4 -13 10 -16 6 -3 7 1 4 9 -7 18 -14 21 -14 7z"/>
<path d="M525 1061 c-6 -11 13 -26 22 -17 4 3 1 6 -6 6 -7 0 -9 5 -6 10 3 6 4
10 1 10 -3 0 -7 -4 -11 -9z"/>
<path d="M1470 1010 l-25 -8 28 -1 c15 -1 27 4 27 9 0 6 -1 10 -2 9 -2 -1 -14
-5 -28 -9z"/>
<path d="M526 975 c-19 -14 -19 -15 -1 -15 18 0 18 -1 -1 -15 -19 -14 -18 -14
2 -9 15 4 22 14 22 30 0 13 -1 24 -2 24 0 0 -10 -7 -20 -15z"/>
<path d="M1455 950 c-3 -6 1 -7 9 -4 18 7 21 14 7 14 -6 0 -13 -4 -16 -10z"/>
<path d="M1238 902 c-26 -3 -41 -22 -18 -22 6 0 10 -9 10 -20 0 -15 -7 -20
-29 -20 -48 0 -61 -9 -61 -45 0 -30 30 -72 42 -59 4 3 26 6 50 6 l44 0 -4 71
c-4 95 -3 92 -34 89z m-10 -107 c4 -31 -15 -50 -35 -33 -16 13 -17 40 -1 56
18 18 33 9 36 -23z"/>
<path d="M896 885 c-4 -11 1 -15 19 -15 16 0 25 6 25 15 0 8 -9 15 -19 15 -10
0 -21 -7 -25 -15z"/>
<path d="M740 876 c-11 -5 -20 -15 -20 -23 0 -18 36 -17 44 2 9 23 46 19 46
-5 0 -11 -7 -23 -15 -26 -19 -8 -20 -24 -1 -24 19 0 27 -25 13 -39 -16 -16
-37 -14 -43 4 -8 19 -44 20 -44 1 0 -8 7 -17 16 -20 25 -9 83 -7 105 4 23 13
25 45 4 54 -13 5 -13 9 -3 26 27 43 -40 74 -102 46z"/>
<path d="M890 831 c0 -6 5 -13 10 -16 16 -10 12 -55 -5 -55 -8 0 -15 -6 -15
-13 0 -9 12 -11 40 -9 22 2 40 8 40 13 0 5 -4 9 -10 9 -5 0 -10 18 -10 40 0
36 -2 40 -25 40 -14 0 -25 -4 -25 -9z"/>
<path d="M990 830 c0 -5 5 -12 10 -15 6 -3 10 -17 10 -31 0 -13 -4 -24 -10
-24 -5 0 -10 -4 -10 -10 0 -5 18 -10 40 -10 22 0 40 5 40 10 0 6 -7 10 -15 10
-9 0 -15 9 -15 24 0 29 17 43 33 27 17 -17 37 -13 37 7 0 16 -9 19 -60 19 -33
1 -60 -3 -60 -7z"/>
</g>
</svg>
